<svg version="1.1" id="Layer_1" xmlns="http://www.w3.org/2000/svg" xmlns:xlink="http://www.w3.org/1999/xlink" x="0px" y="0px"
	 width="100%" viewBox="0 0 1024 1024" enable-background="new 0 0 1024 1024" xml:space="preserve">
<path fill="#000000" opacity="1.000000" stroke="none" 
	d="
M571.210205,559.024658 
	C571.630554,570.432251 574.030457,581.313232 572.328979,592.327454 
	C572.101379,593.801025 571.781677,595.260193 571.546570,596.732788 
	C568.881409,613.423523 557.578125,615.798462 544.318359,608.951477 
	C539.556458,606.492554 535.509216,602.991211 531.693909,599.230957 
	C517.191284,584.937622 504.320801,569.203186 491.278076,553.616394 
	C487.647369,549.277466 483.846283,545.075195 480.001617,540.923096 
	C477.115387,537.806030 473.976562,534.816345 469.181641,536.804077 
	C465.888214,538.169434 463.181000,544.705322 463.685730,549.444885 
	C464.372711,555.895508 465.268555,562.334839 465.069183,568.844055 
	C464.859680,575.684082 462.288391,580.832703 455.625824,583.919495 
	C430.395752,595.608398 405.417053,608.089417 377.627533,612.564758 
	C366.483032,614.359436 355.035034,614.748962 344.201599,610.005615 
	C339.328003,607.871765 335.331573,604.676453 331.933228,600.463379 
	C333.601044,599.371338 334.469513,599.983826 335.259064,600.566589 
	C345.649048,608.235229 357.702332,608.592407 369.282715,606.105408 
	C396.167175,600.331604 421.117249,589.366028 444.732208,575.244568 
	C452.096954,570.840576 454.856689,564.480469 454.780640,556.528564 
	C454.697876,547.872009 454.144928,539.220764 453.871094,530.564880 
	C453.755768,526.919128 453.398376,523.279907 454.459839,519.647888 
	C456.520050,512.598694 461.921112,509.472961 469.032959,511.520935 
	C474.161835,512.997864 478.075714,516.389465 481.832642,519.961365 
	C494.556244,532.058472 505.313477,545.833191 515.819458,559.825745 
	C522.031250,568.099060 528.684509,576.006653 536.532959,582.788025 
	C540.845276,586.514038 545.643494,590.599060 551.699463,587.971313 
	C557.661438,585.384399 558.344360,579.160400 558.674194,573.453491 
	C559.762451,554.624756 558.301147,535.823303 557.361084,517.042908 
	C556.942749,508.685913 559.444092,502.425049 565.882019,497.482666 
	C580.867676,485.978210 594.335754,472.806427 607.219116,459.075806 
	C631.063721,433.663147 654.013794,407.472626 672.096619,377.485718 
	C684.098022,357.583862 694.322144,336.889862 698.145264,313.603882 
	C698.991211,308.450684 699.119507,303.247375 698.445862,298.176453 
	C697.347778,289.911438 692.406921,284.339050 684.633179,281.259857 
	C673.246033,276.749329 661.866028,277.894043 650.320374,280.763733 
	C631.055603,285.552124 613.663818,294.663940 596.036682,303.359589 
	C577.778137,312.366669 560.503296,323.016693 543.255493,333.745331 
	C542.588440,334.160248 541.834961,334.436157 540.653992,335.000244 
	C540.612488,332.733154 542.006775,332.006256 543.121643,331.231506 
	C571.860840,311.259308 600.594727,291.131836 633.037720,277.535248 
	C649.399170,270.678314 666.379333,265.463074 684.707581,265.509125 
	C712.729675,265.579468 720.808105,284.484100 718.807373,305.282257 
	C716.913025,324.974823 710.160156,343.074615 700.311523,360.216095 
	C687.430237,382.636078 673.939148,404.629456 657.444946,424.600830 
	C635.137756,451.610596 611.125427,477.004883 584.432556,499.759735 
	C576.403503,506.604248 568.921631,513.685303 568.828674,525.240051 
	C568.785950,530.555664 569.101135,535.884521 569.486816,541.190430 
	C569.908630,546.991882 570.599609,552.773682 571.210205,559.024658 
z"/>
<path fill="#000000" opacity="1.000000" stroke="none" 
	d="
M376.116882,492.102600 
	C365.287201,507.430237 356.619293,523.542725 349.663574,540.565002 
	C346.089722,549.310974 343.881500,558.146545 347.223206,567.712585 
	C350.348755,576.660034 356.180725,581.694702 365.632843,581.672302 
	C384.504120,581.627625 401.970367,575.966431 418.709137,567.723328 
	C422.589417,565.812500 426.331879,563.616699 430.102997,561.490356 
	C438.236328,556.904358 440.429810,549.366272 440.209747,540.730774 
	C439.764343,523.249451 437.511017,505.913513 436.018494,488.515137 
	C435.551239,483.068237 436.274567,477.497955 438.273468,472.307709 
	C441.786957,463.184723 449.184906,460.685272 457.510834,465.752594 
	C462.504028,468.791565 467.115112,472.375336 471.337463,476.425446 
	C487.717194,492.137146 502.398193,509.410919 517.296997,526.483643 
	C517.844788,527.111328 518.353088,527.773987 518.910828,528.392273 
	C523.171082,533.115479 529.342651,535.409790 533.503601,533.554688 
	C539.153015,531.035950 540.132812,525.779785 539.906982,520.542847 
	C539.619995,513.888977 539.326172,507.258667 539.671509,500.603638 
	C539.889221,496.408539 541.385681,493.019745 544.705383,490.200317 
	C576.047363,463.581024 604.263245,434.065887 628.868591,401.011627 
	C639.881348,386.217407 649.703735,370.950806 657.149353,354.070404 
	C660.958984,345.433472 664.082275,336.578583 664.460449,327.250305 
	C665.224426,308.407562 656.018433,298.424377 635.207581,302.121979 
	C621.134338,304.622437 608.024536,310.965820 594.871887,316.656738 
	C591.100281,318.288696 587.456360,320.310425 582.313538,321.344879 
	C586.013855,317.289551 590.183655,315.698059 593.805542,313.374146 
	C608.340942,304.047882 624.310303,297.727203 640.357788,291.654602 
	C648.849182,288.441376 657.662109,288.685425 666.421082,290.857727 
	C677.044983,293.492523 682.658081,300.545288 683.325745,311.564148 
	C684.256653,326.927094 680.753784,341.323853 674.152344,355.055664 
	C661.229431,381.936646 644.516541,406.289154 625.521973,429.250336 
	C610.408325,447.520050 594.426514,464.880707 576.810547,480.732819 
	C573.598755,483.623016 570.074036,486.162323 566.775757,488.960236 
	C559.152710,495.426849 551.046143,501.577057 550.556030,512.771362 
	C544.142456,512.068848 542.459167,513.784912 543.161316,519.937988 
	C543.463928,522.589111 544.089966,525.137146 545.843506,527.345337 
	C551.190796,534.079285 551.460693,546.901367 546.392761,553.923218 
	C543.789795,557.529907 540.166077,558.660706 535.825134,557.814697 
	C527.817322,556.253906 521.362610,551.918884 515.748108,546.302979 
	C502.424011,532.975525 490.567535,518.323547 478.149078,504.180389 
	C474.073090,499.538269 470.162628,494.753754 464.872070,491.412506 
	C456.510651,486.131866 449.888031,489.291107 448.286621,499.022858 
	C446.095642,512.337402 447.797821,525.600830 448.652771,538.855530 
	C449.040161,544.860901 448.989594,550.828674 449.003387,556.822449 
	C449.020325,564.182739 445.258728,569.122803 439.207703,572.470886 
	C416.786224,584.876587 393.270752,594.481140 367.926544,598.956604 
	C355.898132,601.080750 341.233734,596.582886 334.753601,583.111816 
	C331.476501,576.299316 332.005554,569.523193 333.313904,562.619385 
	C336.187500,547.455750 343.161224,534.077148 351.518585,521.283630 
	C363.833466,502.431763 376.698212,484.006805 392.059967,467.460419 
	C393.243195,466.185944 394.158295,464.440125 397.273682,464.062012 
	C389.973114,473.723419 383.142273,482.763184 376.116882,492.102600 
z"/>
<path fill="#000000" opacity="1.000000" stroke="none" 
	d="
M554.960266,421.018005 
	C552.804749,421.122040 550.613525,421.520569 548.501709,421.264374 
	C544.916565,420.829376 541.355957,419.748962 540.897522,415.406403 
	C540.456787,411.231323 542.103760,407.478638 546.169128,406.153687 
	C550.340393,404.794250 552.282227,402.151672 553.712341,398.342529 
	C555.176636,394.442230 557.301086,390.825745 560.647278,388.114990 
	C561.551758,387.382233 562.643982,386.618103 562.598755,385.351257 
	C562.438232,380.860565 564.381348,377.369232 568.527161,374.209778 
	C557.807617,369.484314 547.431396,368.032898 536.722961,368.444366 
	C534.557068,368.527588 533.904175,370.614319 533.030579,372.165039 
	C530.285156,377.038574 526.581238,380.379547 520.849548,381.609222 
	C516.668213,382.506226 513.489502,385.350006 511.127686,388.989532 
	C509.852295,390.954926 508.584473,393.216888 505.670746,392.270111 
	C502.916565,391.375214 502.113159,388.899597 501.825043,386.355377 
	C501.544861,383.880829 501.692719,381.358887 501.433533,378.880646 
	C501.099976,375.691589 499.110931,374.418518 496.172882,375.506256 
	C490.233643,377.705048 484.405914,380.237122 479.488617,384.343231 
	C477.753601,385.792023 475.600250,387.672852 477.291229,390.250580 
	C478.978119,392.821991 481.295898,391.613922 483.482544,390.528076 
	C491.829041,386.383240 495.475220,387.961884 498.298218,396.845917 
	C498.650848,397.955627 498.983429,399.071838 499.345398,400.178467 
	C501.834076,407.786743 501.399109,409.840881 493.457886,411.557526 
	C480.363525,414.388092 474.722839,424.342377 468.954346,434.528076 
	C468.384125,435.534912 467.994934,436.651978 467.590118,437.743286 
	C466.473083,440.754211 464.642700,441.656250 461.859222,439.709229 
	C456.180756,435.737213 449.565277,440.444366 448.358154,447.880646 
	C448.108551,449.418365 448.404694,450.985870 449.889313,451.831207 
	C451.781311,452.908447 452.501434,451.180573 453.442596,450.094818 
	C454.302643,449.102631 455.055664,447.664734 456.603851,448.113159 
	C458.221649,448.581726 458.656219,450.202789 458.963989,451.682800 
	C459.601135,454.746521 458.706970,458.000122 460.163971,461.317596 
	C454.100067,458.379669 446.294891,459.936066 442.533142,452.199677 
	C439.474426,445.909180 438.481659,439.407104 438.207672,432.481628 
	C433.146973,439.745758 431.649689,447.974701 430.276306,456.293030 
	C427.257294,474.578613 431.366913,492.377441 433.706024,510.306244 
	C434.185120,513.978149 434.440826,517.679199 434.795898,521.329651 
	C432.850525,521.540527 432.516113,520.430237 432.100861,519.601074 
	C425.399323,506.220673 421.079010,492.296875 420.563080,477.120300 
	C419.587646,448.426239 427.739594,422.953033 445.981842,400.768311 
	C482.920135,355.847076 548.119324,346.187927 596.480835,378.437286 
	C596.758057,378.622070 597.034729,378.807556 597.311279,378.993256 
	C607.351440,385.736816 608.197449,383.604858 600.338867,395.335541 
	C596.073242,401.702972 591.445374,407.789917 586.528992,413.682800 
	C584.319275,416.331299 582.450378,417.177734 579.407227,415.183380 
	C577.336060,413.826050 575.001587,412.836884 572.711914,411.852753 
	C564.211975,408.199402 560.136841,409.805634 556.476074,418.135681 
	C556.142334,418.895203 555.736084,419.622864 555.178162,420.683197 
	C554.992859,421.001099 554.960266,421.018005 554.960266,421.018005 
z"/>
<path fill="#000000" opacity="1.000000" stroke="none" 
	d="
M471.980225,290.973083 
	C474.919678,289.612091 477.222656,290.218811 479.437164,292.711151 
	C482.635590,296.310883 486.069427,299.720367 489.598419,303.000671 
	C491.884583,305.125793 492.420135,306.843842 489.824677,309.105377 
	C486.061920,312.384064 482.396820,315.781433 478.805115,319.247375 
	C476.652039,321.325104 474.843323,321.128265 472.845184,319.085846 
	C469.469574,315.635437 465.953583,312.321899 462.592133,308.858124 
	C458.419006,304.557892 456.586304,309.568054 454.026245,311.067810 
	C451.340088,312.641449 450.557159,314.833832 453.047546,317.589386 
	C456.729309,321.663116 460.202240,325.926819 463.724457,330.142731 
	C464.752197,331.372864 466.354095,332.251862 466.424774,334.650238 
	C458.430267,336.351685 449.419281,334.985840 442.759277,341.429901 
	C436.173737,347.801941 435.346008,356.287933 434.567841,364.663361 
	C431.693604,364.921783 430.463043,363.180237 429.156281,361.801758 
	C427.096375,359.628845 425.217041,357.283813 423.277069,354.998260 
	C416.198517,346.658661 416.277985,346.720764 409.316772,355.067078 
	C407.581268,357.147858 407.286499,358.596863 409.307648,360.517700 
	C412.563873,363.612366 415.563965,366.986786 418.922180,369.960815 
	C421.908691,372.605652 421.782227,374.753845 418.905640,377.323639 
	C415.306000,380.539398 411.859924,383.930206 408.409546,387.308716 
	C406.038727,389.630157 404.126221,389.897980 401.944702,386.883118 
	C399.119965,382.979340 395.949707,379.322052 392.864227,375.611877 
	C390.943420,373.302155 390.928436,371.419128 393.207031,369.162689 
	C396.689941,365.713501 400.407501,362.399841 403.408661,357.136017 
	C398.303864,359.428345 395.668610,363.132080 392.599243,366.195282 
	C389.482391,369.305939 386.949524,369.726715 384.006500,366.106384 
	C380.962189,362.361389 377.711304,358.782837 374.510803,355.166931 
	C372.745483,353.172455 372.818359,351.405579 374.759125,349.539398 
	C378.239471,346.192810 381.665100,342.787170 385.043060,339.337128 
	C387.028534,337.309265 388.778748,337.578644 390.538147,339.561157 
	C393.080444,342.425842 395.596405,345.315002 398.187134,348.135315 
	C402.346436,352.663177 403.327148,352.638184 407.694366,348.072723 
	C408.385010,347.350708 408.989136,346.536133 409.732635,345.876312 
	C412.120789,343.756989 412.062225,341.783844 409.742371,339.582031 
	C407.571533,337.521698 405.683594,335.165955 403.546906,333.066589 
	C396.680634,326.320160 395.127869,318.426483 399.016907,309.769226 
	C402.985077,300.935730 409.841522,295.605347 419.726990,294.704315 
	C427.389374,294.005920 433.783325,296.552551 438.910309,302.310852 
	C440.015472,303.552094 441.293793,304.638153 442.415161,305.866119 
	C445.082886,308.787415 447.596313,309.456757 450.876770,306.395752 
	C453.927765,303.548767 455.843781,300.998962 452.377533,297.290680 
	C449.884766,294.623840 447.429413,291.921631 444.912750,289.277679 
	C442.809326,287.067902 442.732056,284.871307 444.904236,282.729218 
	C448.340698,279.340454 451.814728,275.988861 455.317261,272.668365 
	C456.912689,271.155853 458.761566,271.154877 460.206604,272.720459 
	C464.264252,277.116577 468.188995,281.635803 472.144226,286.125854 
	C473.338318,287.481415 472.808838,288.921021 471.795166,290.784180 
	C467.172302,294.386841 463.748230,298.259705 460.192993,302.012848 
	C460.575958,302.366821 460.958893,302.720795 461.341827,303.074738 
	C464.887939,299.040863 468.434082,295.006958 471.980225,290.973083 
z"/>
<path fill="#000000" opacity="1.000000" stroke="none" 
	d="
M315.380554,699.563477 
	C311.601349,699.149353 308.278320,699.421753 305.172729,700.800049 
	C302.498871,701.986633 300.294464,703.668030 300.194275,707.040894 
	C300.097321,710.305786 301.822968,712.308167 304.479187,713.791443 
	C308.780273,716.193176 313.517761,717.116638 318.297638,717.847717 
	C324.504089,718.797058 330.161072,720.976440 335.247650,724.724060 
	C349.743866,735.404114 347.721466,758.821045 331.610779,766.987793 
	C319.202118,773.277954 306.652435,773.102966 293.942444,768.109497 
	C292.239349,767.440308 290.586975,766.637512 288.929199,765.858154 
	C274.887573,759.257080 274.051697,754.995789 284.770752,742.237427 
	C288.984344,745.253845 293.364410,748.186157 298.090820,750.545044 
	C303.644714,753.316895 309.458374,754.344299 315.549408,753.561462 
	C319.968933,752.993408 323.934845,751.113464 324.387939,746.191956 
	C324.833252,741.355713 321.140503,739.255188 317.059998,738.049316 
	C311.320129,736.352905 305.552582,734.749268 299.788086,733.137329 
	C286.257935,729.354004 278.956909,719.624634 279.770599,706.429077 
	C280.538452,693.977905 289.518890,684.753357 302.822998,682.648865 
	C315.173126,680.695251 326.978394,682.355347 338.237579,687.803284 
	C342.513855,689.872498 343.659454,692.940308 341.130157,697.140686 
	C340.873962,697.566101 340.704803,698.044189 340.498657,698.499390 
	C336.042267,708.338318 336.009735,708.397278 326.663361,703.231995 
	C323.232208,701.335693 319.325317,701.099243 315.380554,699.563477 
z"/>
<path fill="#000000" opacity="1.000000" stroke="none" 
	d="
M620.816528,397.737854 
	C592.933167,439.158356 557.645447,472.790436 518.064575,502.195648 
	C516.727417,503.188995 515.386780,504.178070 514.063782,505.190033 
	C508.820435,509.200531 508.561646,509.041046 504.526093,504.321808 
	C502.080841,501.462311 502.540375,499.582916 505.238739,497.294373 
	C516.160583,488.031189 526.833313,478.471130 537.844177,469.316742 
	C561.524170,449.629211 582.821350,427.659424 601.043457,402.853333 
	C611.047058,389.235168 619.147522,374.498779 622.184387,357.521851 
	C622.388855,356.378906 622.590881,355.225525 622.656128,354.069244 
	C623.395874,340.952240 618.949768,336.853577 605.821716,336.914642 
	C591.484314,336.981384 579.444153,343.071381 567.529724,349.885254 
	C564.731567,351.485474 561.954773,353.123047 558.934814,354.879120 
	C558.470459,352.329956 559.975952,351.881104 560.966614,351.188843 
	C575.671692,340.913361 591.600220,333.077240 608.537781,327.199127 
	C614.742920,325.045654 621.064575,325.211365 627.303833,326.130890 
	C637.052368,327.567535 642.824463,337.896606 640.777405,349.840485 
	C638.099182,365.467316 632.246338,379.885345 623.710754,393.228333 
	C622.813232,394.631439 621.914368,396.033661 620.816528,397.737854 
z"/>
<path fill="#000000" opacity="1.000000" stroke="none" 
	d="
M474.329468,720.510986 
	C483.519653,705.216980 497.558655,702.679810 512.707947,705.239807 
	C524.178772,707.178284 534.289978,721.153320 535.288940,734.156860 
	C536.152710,745.400757 536.152649,745.391602 524.947449,745.377808 
	C515.796814,745.366516 506.646057,745.359131 497.495575,745.398438 
	C495.205719,745.408264 492.802429,745.098145 490.879333,746.831909 
	C493.500214,758.575073 506.905518,759.710754 519.088379,749.485107 
	C522.761780,752.935120 526.413452,756.364746 530.055969,759.785767 
	C518.530334,772.468384 501.388000,775.970093 486.606445,767.397949 
	C470.553955,758.088928 465.410309,739.030151 474.329468,720.510986 
M514.942993,723.740601 
	C509.993286,718.616028 504.219666,717.395020 497.716156,720.310669 
	C493.066437,722.395203 490.214905,725.872681 489.464874,731.873718 
	C497.028107,731.873718 503.967499,731.938538 510.905090,731.854858 
	C517.413269,731.776428 518.098694,730.558289 514.942993,723.740601 
z"/>
<path fill="#000000" opacity="1.000000" stroke="none" 
	d="
M410.913635,740.006104 
	C410.910919,748.497742 410.705139,756.497986 410.991394,764.480652 
	C411.157715,769.119202 409.392365,770.924500 404.882874,770.495605 
	C402.900879,770.307129 400.880310,770.270691 398.895905,770.417603 
	C395.356079,770.679443 392.583313,769.966370 392.240875,765.477722 
	C388.522552,766.305359 386.059143,768.722839 383.083282,770.057739 
	C374.280243,774.006409 366.256683,771.903687 359.372803,766.131409 
	C353.240082,760.988953 351.919159,753.747498 353.778320,746.072021 
	C355.764282,737.873230 363.464111,732.041504 372.704803,731.765015 
	C377.692902,731.615784 382.693756,731.951599 387.687103,731.900208 
	C392.911224,731.846497 394.430664,729.057312 391.844971,724.523804 
	C390.544159,722.243103 388.670807,720.743164 386.064941,720.134399 
	C379.621124,718.629211 373.509979,719.556641 367.691315,722.586670 
	C366.242035,723.341492 364.892334,724.287476 363.282532,725.277405 
	C360.386169,721.759949 360.018707,717.450806 358.203705,713.814026 
	C357.179657,711.762085 359.397858,710.574768 360.886658,709.624084 
	C364.145264,707.543030 367.789276,706.370300 371.552948,705.554688 
	C378.310181,704.090393 385.221771,703.989075 391.895721,705.176819 
	C402.760590,707.110474 411.104614,718.132996 411.164001,729.519775 
	C411.181396,732.848450 411.004791,736.178162 410.913635,740.006104 
M373.713348,744.041504 
	C369.944214,746.180603 369.659271,749.441284 371.041779,753.030518 
	C372.398865,756.553650 375.201324,757.941711 378.910767,757.797302 
	C385.628418,757.535706 391.108246,753.019836 392.420380,746.701904 
	C393.008484,743.870239 392.380127,742.126160 389.115723,742.183960 
	C384.169830,742.271545 379.165924,741.772461 373.713348,744.041504 
z"/>
<path fill="#000000" opacity="1.000000" stroke="none" 
	d="
M702.269470,705.837769 
	C706.579163,704.655823 710.581360,705.099670 714.564392,705.159546 
	C717.280884,705.200317 719.239502,706.494751 720.745056,708.749451 
	C723.968140,713.576416 727.296204,718.333252 730.941345,723.643311 
	C735.420837,719.153564 738.620667,714.147400 741.634888,709.101196 
	C743.508606,705.964294 745.785339,704.591797 749.320557,704.839233 
	C753.727478,705.147583 758.225891,704.114685 762.465637,705.456299 
	C763.507874,707.830627 761.901001,709.171143 761.081787,710.702881 
	C756.747009,718.808899 751.308838,726.177124 745.613586,733.347839 
	C743.438171,736.086853 743.174316,738.229004 745.436768,741.241821 
	C752.316284,750.403259 758.853760,759.821655 766.168457,770.039673 
	C758.604919,770.039673 751.942078,770.193176 745.294495,769.942810 
	C743.387390,769.870972 742.644043,767.624268 741.687073,766.072266 
	C739.155212,761.966370 736.667297,757.831055 734.031128,753.792786 
	C732.203369,750.992920 730.244080,750.816895 728.346436,753.871887 
	C725.713135,758.111267 723.013733,762.309570 720.332520,766.518982 
	C719.444458,767.913330 718.721375,769.800903 716.946777,769.963562 
	C710.565613,770.548767 704.171631,770.546265 697.894104,770.104797 
	C697.398254,767.233643 699.119751,766.087524 700.123718,764.673279 
	C705.324524,757.347351 710.519592,750.013672 715.907104,742.825439 
	C718.419861,739.472778 718.686401,736.630554 716.253052,732.964783 
	C711.563721,725.900513 707.312134,718.541931 702.999329,711.234375 
	C702.094604,709.701477 699.943420,708.218567 702.269470,705.837769 
z"/>
<path fill="#000000" opacity="1.000000" stroke="none" 
	d="
M458.817200,704.826172 
	C460.997467,704.977600 462.082550,705.797668 462.206024,707.604797 
	C462.273987,708.600037 462.293671,709.599304 462.309631,710.597229 
	C462.467987,720.520996 462.470642,720.642151 452.489960,720.982117 
	C448.679321,721.111877 447.104248,722.470398 447.334595,726.386047 
	C447.734955,733.191650 447.714355,740.021240 448.062805,746.830933 
	C448.366058,752.757019 450.931549,755.034851 456.753326,754.093201 
	C460.243347,753.528748 461.523621,754.690857 462.290558,757.892334 
	C464.950317,768.994873 463.462769,770.961243 451.608795,771.366455 
	C437.333466,771.854431 428.778351,763.533936 428.840851,749.176697 
	C428.874207,741.520020 428.905182,733.862061 429.070709,726.207642 
	C429.145935,722.729370 428.306885,720.262878 424.248535,720.236877 
	C421.041168,720.216309 419.852509,718.424011 419.998962,715.407166 
	C420.103882,713.246704 420.103943,711.081299 420.166840,708.918579 
	C420.238647,706.448730 421.129700,704.586914 423.960968,704.762512 
	C428.110870,705.019897 429.179901,702.754944 428.859955,699.180847 
	C428.845154,699.015747 428.856995,698.848083 428.859131,698.681641 
	C429.026978,685.744202 430.820679,684.273071 444.024628,685.866699 
	C446.754395,686.196228 447.768768,687.404541 447.577240,690.112549 
	C447.354462,693.262451 447.590088,696.447937 447.310822,699.589905 
	C446.932678,703.844238 448.214417,705.961487 452.878204,705.042419 
	C454.651367,704.693054 456.527710,704.867188 458.817200,704.826172 
z"/>
<path fill="#000000" opacity="1.000000" stroke="none" 
	d="
M429.544495,619.441528 
	C453.702271,635.544617 479.963165,645.052673 508.345123,648.508362 
	C535.361389,651.797791 561.855347,649.041748 587.615295,640.125977 
	C648.666870,618.995483 690.335693,578.248840 710.000732,516.512695 
	C724.832642,469.950012 721.420532,424.213837 699.341187,380.247833 
	C698.312439,378.199341 697.322327,376.359741 699.916870,374.674194 
	C702.272461,375.516449 702.884888,377.757385 703.854248,379.580383 
	C714.637207,399.859375 720.175598,421.607452 722.456177,444.381317 
	C725.455139,474.328339 720.825134,503.276031 710.192993,531.073303 
	C696.504639,566.860840 673.297546,595.669067 642.035767,617.843262 
	C616.145020,636.207764 587.180176,647.759888 555.928772,651.794434 
	C506.262726,658.206238 460.195801,647.746765 419.398895,617.621521 
	C416.147278,615.220459 411.965881,613.268372 410.979279,607.229553 
	C418.901398,609.782715 423.164368,615.961975 429.544495,619.441528 
z"/>
<path fill="#000000" opacity="1.000000" stroke="none" 
	d="
M623.357422,687.710754 
	C628.310547,684.857910 633.338135,686.041626 638.252075,686.181702 
	C640.465393,686.244812 641.301758,687.857300 641.278809,689.989502 
	C641.244690,693.151917 641.514160,696.336243 641.230652,699.472961 
	C640.822754,703.986145 642.824524,705.544434 647.050293,705.048523 
	C648.035767,704.932922 649.047302,705.061951 650.044556,705.021973 
	C653.739014,704.873901 655.764893,706.373840 655.366577,710.325745 
	C655.333313,710.655640 655.347534,710.991333 655.353943,711.324097 
	C655.532654,720.599670 655.532959,720.601685 646.380371,720.610901 
	C643.059509,720.614197 641.116028,721.694763 641.283386,725.590759 
	C641.554626,731.906067 641.390747,738.239502 641.441223,744.565063 
	C641.460083,746.928528 641.950012,749.186462 643.210876,751.233276 
	C644.765564,753.757324 646.606995,755.282410 649.770569,753.657593 
	C653.290649,751.849609 655.060608,753.198547 655.431580,756.993958 
	C655.559509,758.303101 656.011597,759.589722 656.393860,760.863159 
	C658.340149,767.346558 658.198242,767.175781 652.042664,769.683594 
	C632.935669,777.468140 622.512024,762.798706 622.779480,748.799011 
	C622.928894,740.976990 622.730469,733.146484 622.981812,725.329224 
	C623.103271,721.549927 621.638977,719.366455 617.963379,719.588318 
	C613.125305,719.880188 612.338440,717.344421 612.725952,713.443359 
	C612.856995,712.123962 612.836487,710.776550 612.748108,709.451050 
	C612.542419,706.368286 613.791870,704.502991 617.011841,704.812744 
	C621.877319,705.280823 623.020996,702.845093 622.777893,698.538330 
	C622.582336,695.074280 622.985168,691.576355 623.357422,687.710754 
z"/>
<path fill="#000000" opacity="1.000000" stroke="none" 
	d="
M673.116455,565.082336 
	C653.091858,591.479309 628.860107,612.205200 598.346375,624.702881 
	C572.737061,635.191895 546.016052,639.211670 518.233765,637.478271 
	C489.479919,635.684265 463.049896,627.393494 438.662872,612.269714 
	C435.838745,610.518250 433.136993,608.542419 430.529999,606.479187 
	C429.228516,605.449158 426.904663,604.326843 428.614105,602.153809 
	C430.165314,600.181824 431.837067,601.531494 433.340973,602.720825 
	C446.991608,613.516052 462.460236,621.081482 478.995850,625.832581 
	C541.022095,643.654846 596.851379,632.223328 645.350220,588.860046 
	C666.583801,569.874878 682.704712,547.104858 692.259216,520.233643 
	C703.642700,488.218353 706.731323,455.472412 698.296204,422.086761 
	C695.922058,412.689819 693.105957,403.510071 688.690491,394.855438 
	C687.720642,392.954468 687.831848,392.897736 690.294434,389.401917 
	C699.060608,402.967896 702.858826,417.850128 705.007324,432.996918 
	C711.817078,481.004913 702.564270,525.351562 673.116455,565.082336 
z"/>
<path fill="#000000" opacity="1.000000" stroke="none" 
	d="
M388.463684,490.371826 
	C380.239929,504.887329 371.771851,518.892151 367.980621,535.027771 
	C365.200439,546.860229 371.828613,555.588989 383.914215,555.959534 
	C395.207275,556.305908 405.462036,552.304199 415.613129,548.050659 
	C418.520233,546.832581 421.173309,545.016602 424.059143,543.737000 
	C427.138733,542.371460 430.034698,538.464172 433.690338,541.416565 
	C435.935364,543.229675 433.146942,553.329590 430.015656,555.051819 
	C413.721863,564.013794 396.777985,571.466003 377.886047,572.174255 
	C363.601349,572.709839 356.410065,564.821411 356.807495,550.423706 
	C357.035736,542.154907 359.068665,534.289429 362.858643,526.930237 
	C372.183594,508.823608 382.914673,491.602051 395.462189,475.537476 
	C396.161957,474.641510 396.670746,473.514282 398.926941,472.931061 
	C395.725891,479.308533 391.181763,484.126617 388.463684,490.371826 
z"/>
<path fill="#000000" opacity="1.000000" stroke="none" 
	d="
M547.125793,757.275574 
	C548.010681,732.352173 547.845642,707.894470 547.186707,683.443054 
	C547.105286,680.420410 547.686157,679.266785 550.747864,679.014526 
	C565.110779,677.831299 565.262390,677.903687 565.262207,692.076294 
	C565.261963,716.211670 565.252808,740.346985 565.235718,764.482361 
	C565.231506,770.431396 564.502808,771.120239 558.688416,770.854248 
	C546.860168,770.313232 546.860168,770.313232 547.125793,757.275574 
z"/>
<path fill="#000000" opacity="1.000000" stroke="none" 
	d="
M602.074097,715.066162 
	C602.050171,731.705200 601.900940,747.854309 602.072815,763.999939 
	C602.121704,768.585754 600.927734,770.555908 595.922668,770.494019 
	C582.837952,770.332275 582.814087,770.535034 582.814148,757.287781 
	C582.814270,741.971558 582.970337,726.654114 582.808533,711.339905 
	C582.763245,707.054688 584.091248,705.071106 588.528137,705.611389 
	C590.003845,705.791077 591.521179,705.629211 593.019531,705.621765 
	C602.010620,705.577332 602.010620,705.577209 602.074097,715.066162 
z"/>
<path fill="#000000" opacity="1.000000" stroke="none" 
	d="
M612.959351,550.963989 
	C602.833313,560.823364 591.500732,568.110229 578.685364,573.238770 
	C575.873230,566.056458 575.863464,565.679199 581.785583,562.501404 
	C601.705566,551.812256 617.710388,537.188110 627.601074,516.595886 
	C636.073303,498.956726 639.987610,480.427094 636.838196,460.830444 
	C635.965271,455.398956 639.173462,452.701843 642.959595,449.955505 
	C651.300110,471.310669 646.876282,519.356140 612.959351,550.963989 
z"/>
<path fill="#000000" opacity="1.000000" stroke="none" 
	d="
M668.642944,721.029419 
	C668.644836,719.872192 668.647095,719.206482 668.645996,718.540710 
	C668.622742,704.209717 668.618896,704.261414 683.294983,705.343140 
	C687.201965,705.630981 687.156555,708.231201 687.162720,710.996338 
	C687.196045,725.975464 687.232971,740.954651 687.274719,755.933777 
	C687.281250,758.263794 687.273499,760.595276 687.351501,762.923401 
	C687.601501,770.379944 687.615845,770.379456 679.888733,770.374146 
	C668.438232,770.366272 668.849426,770.346008 668.311646,759.443420 
	C667.686829,746.774780 668.850281,734.161621 668.642944,721.029419 
z"/>
<path fill="#000000" opacity="1.000000" stroke="none" 
	d="
M622.840698,476.590851 
	C622.158691,479.669922 620.487183,481.782166 618.741760,483.780884 
	C612.165222,491.311584 607.621094,499.845886 605.053223,509.545563 
	C602.546753,519.013245 597.820496,527.015442 588.870483,531.975891 
	C582.874207,535.299194 580.122986,533.699890 577.608826,527.574402 
	C573.869751,518.464294 577.412659,512.646851 584.049316,506.931091 
	C597.401794,495.431427 610.176941,483.285980 622.687073,470.207611 
	C624.096924,472.530579 623.061401,474.409637 622.840698,476.590851 
z"/>
<path fill="#000000" opacity="1.000000" stroke="none" 
	d="
M555.006714,420.989410 
	C560.276611,420.969452 565.410889,418.621704 570.794922,420.530365 
	C576.546631,422.569305 577.150635,424.211639 573.215210,428.796875 
	C564.103455,439.413239 554.105408,449.156311 543.746765,458.537231 
	C542.546814,459.623901 541.347717,460.832916 538.936340,461.137665 
	C537.200623,455.636871 534.560486,449.838165 537.059082,444.448273 
	C541.132568,435.660919 545.317871,426.565826 554.701050,421.221130 
	C554.960266,421.018005 554.992859,421.001099 555.006714,420.989410 
z"/>
<path fill="#000000" opacity="1.000000" stroke="none" 
	d="
M460.716248,343.458374 
	C465.071899,342.857056 469.937073,341.306885 472.232269,345.155579 
	C474.537964,349.021881 470.341583,352.316681 468.392151,355.620636 
	C467.889679,356.472229 467.195679,357.210785 466.589661,358.001282 
	C463.769531,361.679840 464.150635,362.931793 468.809784,363.650330 
	C472.624329,364.238586 473.408844,366.631134 472.851868,369.700775 
	C472.379669,372.303070 470.093689,373.597198 467.712708,373.664856 
	C465.162598,373.737305 464.189911,371.637238 463.779663,369.322662 
	C462.785889,363.715881 462.166412,363.539948 457.275726,366.609650 
	C453.925690,368.712341 451.287018,371.845337 447.291046,373.044983 
	C444.086823,374.006958 442.208374,372.896301 442.062256,369.829163 
	C441.474152,357.485199 444.310089,344.958954 460.716248,343.458374 
z"/>
<path fill="#000000" opacity="1.000000" stroke="none" 
	d="
M497.867828,268.175873 
	C496.712555,268.199097 495.402069,268.539825 494.528748,267.592529 
	C489.792267,262.454926 485.064606,257.306641 480.458801,252.052567 
	C479.001495,250.390198 480.280853,248.918625 481.496124,247.720337 
	C484.936310,244.328201 488.464844,241.025085 491.880798,237.609085 
	C494.123352,235.366455 495.838593,236.021194 497.691864,238.164154 
	C500.741547,241.690475 503.802917,245.228119 507.122498,248.493500 
	C510.405396,251.722763 510.662415,254.562759 507.129303,257.716766 
	C505.912354,258.803131 505.056305,260.293854 503.704712,262.145691 
	C501.538635,264.519653 499.703217,266.347748 497.867828,268.175873 
z"/>
<path fill="#000000" opacity="1.000000" stroke="none" 
	d="
M492.045959,272.980408 
	C488.050079,276.174286 483.947723,279.246033 480.096436,282.605652 
	C477.598267,284.784882 475.680939,284.976471 473.413391,282.346497 
	C469.950562,278.330170 466.323456,274.452637 462.691406,270.586273 
	C460.983551,268.768188 460.971832,267.217102 462.805756,265.491638 
	C466.669739,261.856171 470.440552,258.121796 474.298706,254.479980 
	C475.710114,253.147736 477.343231,252.119568 478.938385,254.203445 
	C482.771851,259.211426 486.801758,264.040527 491.257050,268.513733 
	C492.264282,269.524994 492.338013,270.890167 492.037720,272.631165 
	C492.010010,273.006226 492.045959,272.980438 492.045959,272.980408 
z"/>
<path fill="#000000" opacity="1.000000" stroke="none" 
	d="
M538.969116,262.974182 
	C529.696228,271.804779 531.756897,272.338593 523.356384,262.525055 
	C520.802124,259.541138 516.074707,257.364288 516.201294,253.381149 
	C516.325867,249.460312 521.017700,247.351303 523.619202,244.379318 
	C530.427124,236.601715 530.485229,236.652328 537.513550,243.933472 
	C538.207581,244.652542 538.906921,245.366714 539.589905,246.096252 
	C547.512817,254.560059 547.512146,254.560684 538.969116,262.974182 
z"/>
<path fill="#000000" opacity="1.000000" stroke="none" 
	d="
M497.829803,268.548706 
	C499.703217,266.347748 501.538635,264.519653 503.581238,262.485474 
	C504.616730,261.731079 505.591949,261.319641 506.250092,260.612885 
	C511.606964,254.860672 512.171692,253.748596 519.019653,261.410004 
	C521.233154,263.886505 523.364990,266.482452 525.860229,268.648132 
	C528.578613,271.007446 528.403931,272.779816 525.869995,275.113434 
	C522.327026,278.376312 519.069763,281.947449 515.611694,285.305756 
	C514.420532,286.462585 512.667419,287.889832 511.263550,286.311462 
	C506.387421,280.829315 500.250336,276.281891 497.829803,268.548706 
z"/>
<path fill="#000000" opacity="1.000000" stroke="none" 
	d="
M521.365112,243.364258 
	C513.687927,251.014603 513.689819,251.012833 506.637268,243.565018 
	C504.356842,241.156799 502.113129,238.710892 499.761963,236.373428 
	C497.666229,234.289886 497.805573,232.501709 499.921661,230.486389 
	C503.281433,227.286697 506.550476,223.985977 509.747528,220.623108 
	C511.975464,218.279663 513.963623,218.429443 516.054443,220.717972 
	C519.298157,224.268341 522.507019,227.854462 525.856995,231.302597 
	C528.646179,234.173492 528.561462,236.694290 525.512146,239.272659 
	C524.124146,240.446365 522.915222,241.831924 521.365112,243.364258 
z"/>
<path fill="#000000" opacity="1.000000" stroke="none" 
	d="
M491.994812,273.022217 
	C493.518188,272.405853 494.960663,272.561371 496.116974,273.785156 
	C500.230835,278.139160 504.330994,282.506897 508.377533,286.923309 
	C509.443420,288.086700 510.135620,289.578064 508.774506,290.934998 
	C504.097198,295.598083 499.815216,300.707642 494.186371,304.702850 
	C489.403900,299.578094 484.896698,294.749603 480.391022,289.919647 
	C478.533264,287.928223 479.505676,286.493164 481.112305,284.856506 
	C484.725586,281.175659 488.161011,277.320190 491.857391,273.258118 
	C492.045959,272.980438 492.010010,273.006226 491.994812,273.022217 
z"/>
<path fill="#000000" opacity="1.000000" stroke="none" 
	d="
M347.497742,407.597076 
	C344.201538,412.223083 340.025574,415.551910 336.344177,419.357788 
	C334.822083,420.931274 333.312775,421.154938 331.656891,419.464233 
	C327.829590,415.556427 323.937439,411.712158 320.094238,407.819733 
	C317.804718,405.500885 317.801239,403.326416 320.305267,401.019867 
	C323.717285,397.876984 326.939911,394.529297 330.274445,391.301086 
	C331.448273,390.164642 332.963623,388.417267 334.436798,390.212585 
	C338.993317,395.765625 345.109528,400.139069 347.497742,407.597076 
z"/>
<path fill="#000000" opacity="1.000000" stroke="none" 
	d="
M350.180237,409.220612 
	C356.844818,412.638367 360.259308,418.923401 364.803741,424.121948 
	C365.912903,425.390778 365.184113,426.583405 364.149811,427.613922 
	C361.089966,430.662567 358.147034,433.837280 354.966156,436.753052 
	C352.098511,439.381683 349.197479,439.562347 346.349884,436.361359 
	C343.258118,432.885925 339.952911,429.598419 336.696564,426.272217 
	C334.857574,424.393799 334.564941,422.672974 336.734955,420.801666 
	C341.134460,417.007690 345.473206,413.143311 350.180237,409.220612 
z"/>
<path fill="#000000" opacity="1.000000" stroke="none" 
	d="
M373.761841,359.318481 
	C376.823975,362.823425 379.594330,366.126068 382.522430,369.282288 
	C384.412048,371.319183 384.875702,373.069855 382.629211,375.193542 
	C379.379822,378.265289 376.274750,381.490387 373.126495,384.668243 
	C370.942871,386.872345 368.934448,386.937836 366.852570,384.456055 
	C363.551605,380.521057 360.204071,376.621613 356.764923,372.807465 
	C354.829529,370.661072 354.847168,368.729858 356.866913,366.762817 
	C360.189514,363.526978 363.503906,360.281830 366.873444,357.095276 
	C370.159119,353.988068 371.755981,356.896484 373.761841,359.318481 
z"/>
<path fill="#000000" opacity="1.000000" stroke="none" 
	d="
M355.968567,408.852417 
	C355.251434,407.685364 354.551086,406.675262 355.224762,405.785522 
	C358.823151,401.033234 362.602112,396.415314 367.246277,392.630341 
	C368.727631,391.423065 370.136230,392.500366 371.182709,393.587494 
	C375.205231,397.766174 379.164368,402.006104 383.126678,406.242371 
	C384.743713,407.971191 384.209442,409.563110 382.660217,410.985413 
	C378.876953,414.458588 375.071442,417.907593 371.277069,421.368683 
	C369.113068,423.342560 367.394135,422.436188 365.802979,420.548553 
	C362.598236,416.746582 359.382721,412.953644 355.968567,408.852417 
z"/>
<path fill="#000000" opacity="1.000000" stroke="none" 
	d="
M376.066895,385.164001 
	C378.830170,382.471405 381.465179,380.150482 383.832916,377.583038 
	C386.327911,374.877747 388.449188,374.895325 390.837524,377.677521 
	C394.194397,381.587982 397.185669,385.828064 401.216003,389.144989 
	C403.054810,390.658325 402.644012,392.335022 401.094513,393.855530 
	C397.407990,397.473083 393.710938,401.079926 390.014587,404.687439 
	C388.215637,406.443085 386.595398,406.296600 384.933929,404.388672 
	C381.325134,400.244507 377.602448,396.199615 373.985687,392.062256 
	C371.300507,388.990479 374.091766,387.332428 376.066895,385.164001 
z"/>
<path fill="#000000" opacity="1.000000" stroke="none" 
	d="
M354.523132,401.370605 
	C352.503815,403.515686 350.964783,403.926819 349.017548,401.550934 
	C345.552307,397.322968 341.892792,393.244476 338.149231,389.258698 
	C336.402435,387.398865 336.389771,385.962677 338.156982,384.209259 
	C341.570435,380.822479 344.907715,377.358704 348.263519,373.914093 
	C349.988495,372.143524 351.497528,372.071594 353.262726,374.036072 
	C357.024811,378.222900 360.944550,382.268250 364.807129,386.364594 
	C366.656433,388.325867 366.440338,390.302032 364.628479,392.044952 
	C361.406921,395.143951 358.067688,398.120697 354.523132,401.370605 
z"/>
<path fill="#000000" opacity="1.000000" stroke="none" 
	d="
M381.017517,295.340546 
	C383.999268,284.191437 392.144409,278.913879 401.778961,275.253143 
	C404.690521,274.146912 405.640686,276.099792 406.102997,278.451691 
	C408.483368,290.561401 397.803497,301.907379 385.586731,300.215363 
	C383.029510,299.861176 380.524384,299.268921 381.017517,295.340546 
z"/>
<path fill="#000000" opacity="1.000000" stroke="none" 
	d="
M668.036865,683.182373 
	C668.099365,681.556824 668.229370,680.106445 669.415466,679.760376 
	C674.907959,678.157654 680.502808,678.459045 686.054993,679.453064 
	C687.321472,679.679749 687.763550,681.058350 687.743469,682.237366 
	C687.669922,686.537415 687.515015,690.837219 687.307312,695.133179 
	C687.224670,696.843384 685.920776,697.241516 684.487366,697.248657 
	C680.345886,697.269226 676.204285,697.252014 672.062683,697.252258 
	C669.569397,697.252441 668.588745,696.027954 668.577942,693.528442 
	C668.563721,690.223877 668.228516,686.920776 668.036865,683.182373 
z"/>
<path fill="#000000" opacity="1.000000" stroke="none" 
	d="
M585.389771,679.156982 
	C586.988708,678.913208 588.144165,678.788147 589.301331,678.769531 
	C603.316956,678.543579 604.095764,679.494141 602.159119,693.676636 
	C601.832153,696.071289 600.831238,697.440369 598.393799,697.255981 
	C593.683533,696.899719 586.926941,699.521179 584.748352,695.908691 
	C582.077148,691.479492 582.471497,684.859558 585.389771,679.156982 
z"/>
<path fill="#000000" opacity="1.000000" stroke="none" 
	d="
M484.076141,571.037598 
	C480.577057,569.042786 477.348358,567.315063 474.247650,565.381958 
	C468.053040,561.519958 467.670441,560.395264 469.386353,552.653137 
	C471.161682,551.993103 472.131500,553.441284 473.280396,554.249878 
	C479.812744,558.847595 486.456238,563.124512 494.045593,565.965149 
	C499.478241,567.998535 500.813934,574.142700 504.550812,578.096619 
	C497.193054,577.264343 490.825470,574.161377 484.076141,571.037598 
z"/>
<path fill="#000000" opacity="1.000000" stroke="none" 
	d="
M528.488892,501.330536 
	C530.180969,500.341217 531.317200,498.886078 533.194214,499.386444 
	C537.051636,509.400848 532.542847,519.245728 522.542175,522.247375 
	C518.541016,523.448303 517.976746,519.306885 516.136658,517.325562 
	C514.387329,515.441895 513.895935,513.253845 516.286865,511.300720 
	C520.259277,508.055664 524.225281,504.802765 528.488892,501.330536 
z"/>
<path fill="#000000" opacity="1.000000" stroke="none" 
	d="
M339.935944,489.868591 
	C336.890289,473.754303 336.933472,458.080505 339.058624,441.868713 
	C342.987183,443.069855 343.010620,445.240204 342.821167,447.403320 
	C340.917450,469.135254 342.229706,490.571503 348.580994,511.562439 
	C349.043213,513.090027 349.855194,514.723572 347.398346,516.799377 
	C343.029602,508.252533 342.457703,498.975311 339.935944,489.868591 
z"/>
<path fill="#000000" opacity="1.000000" stroke="none" 
	d="
M577.640564,278.166565 
	C584.718811,279.709839 591.121155,282.040894 597.531799,284.343658 
	C599.456848,285.035065 601.782104,285.813873 600.566467,288.414276 
	C599.507324,290.679901 597.681824,288.897827 596.275940,288.361450 
	C578.433655,281.554474 559.826233,278.284393 540.933228,276.318573 
	C539.613159,276.181183 538.282593,276.114319 536.975586,275.900330 
	C536.553467,275.831238 536.191345,275.395477 535.529846,274.940308 
	C536.548096,272.140686 538.956299,272.795929 540.879395,272.728363 
	C553.318420,272.291412 565.269653,275.277435 577.640564,278.166565 
z"/>
<path fill="#000000" opacity="1.000000" stroke="none" 
	d="
M553.386108,289.388000 
	C562.691406,291.562653 571.584656,293.608490 580.463257,295.715881 
	C582.045593,296.091492 584.276184,296.522186 583.812744,298.608002 
	C583.263489,301.080505 580.935059,300.327362 579.219543,299.882965 
	C571.023621,297.759888 562.908936,295.287964 554.654358,293.434540 
	C543.537048,290.938263 532.252563,291.261322 520.968262,292.318787 
	C519.504822,292.455933 517.088562,293.522064 516.752686,291.177521 
	C516.383301,288.598907 518.989685,288.770905 520.694885,288.567230 
	C531.481934,287.278900 542.246887,287.418793 553.386108,289.388000 
z"/>
<path fill="#000000" opacity="1.000000" stroke="none" 
	d="
M486.578796,484.420929 
	C481.399353,478.617249 476.475891,473.057465 471.772705,467.746368 
	C475.348267,467.218719 479.498566,467.441193 481.865784,472.385437 
	C482.894958,474.534973 484.417358,475.636230 486.869507,475.848389 
	C490.893158,476.196594 493.762390,478.097565 494.428009,482.446899 
	C494.878113,485.388000 496.757965,487.062866 499.441467,488.116943 
	C501.061737,488.753387 503.078369,488.846130 503.990051,490.698639 
	C500.411743,496.819305 499.057159,497.079437 494.502258,492.525238 
	C491.914062,489.937469 489.388550,487.287018 486.578796,484.420929 
z"/>
<path fill="#000000" opacity="1.000000" stroke="none" 
	d="
M353.509399,470.494324 
	C352.639648,463.050537 353.809174,456.106018 354.038055,449.144958 
	C354.126160,446.465424 355.211334,443.740570 358.323456,441.813873 
	C359.391174,445.784912 358.421570,449.207001 358.027985,452.450714 
	C356.264008,466.988953 357.757965,481.284210 360.469208,495.532196 
	C360.907257,497.834137 361.814880,500.160248 357.869171,501.645081 
	C354.830048,491.524933 353.856323,481.294373 353.509399,470.494324 
z"/>
</svg>
